<?xml version="1.0" encoding="utf-8"?>
<!-- Generator: Adobe Illustrator 19.0.0, SVG Export Plug-In . SVG Version: 6.00 Build 0)  -->
<svg version="1.1" id="Calque_1" xmlns="http://www.w3.org/2000/svg" xmlns:xlink="http://www.w3.org/1999/xlink" x="0px" y="0px"
	 viewBox="0 0 443.4 252" style="enable-background:new 0 0 443.4 252;" xml:space="preserve">
<style type="text/css">
	.st0{fill:url(#SVGID_1_);}
	.st1{fill:url(#SVGID_2_);}
	.st2{fill:url(#SVGID_3_);}
	.st3{fill:url(#SVGID_4_);}
	.st4{fill:url(#SVGID_5_);}
	.st5{fill:url(#SVGID_6_);}
	.st6{fill:url(#SVGID_7_);}
	.st7{fill:url(#SVGID_8_);}
	.st8{fill:url(#SVGID_9_);}
	.st9{fill:url(#SVGID_10_);}
	.st10{fill:url(#SVGID_11_);}
	.st11{fill:url(#SVGID_12_);}
</style>
<linearGradient id="SVGID_1_" gradientUnits="userSpaceOnUse" x1="219.2834" y1="26.6472" x2="241.7822" y2="26.6472">
	<stop  offset="0" style="stop-color:#FFFFFF"/>
	<stop  offset="0" style="stop-color:#900C3E"/>
</linearGradient>
<polygon class="st0" points="241.4,45.6 219.3,30.6 219.3,7.6 241.8,7.6 "/>
<linearGradient id="SVGID_2_" gradientUnits="userSpaceOnUse" x1="8.3885" y1="123.755" x2="364.0672" y2="123.755" gradientTransform="matrix(0.5367 -0.537 1.0223 1.0217 -119.093 81.8443)">
	<stop  offset="0" style="stop-color:#FFFFFF"/>
	<stop  offset="0.7044" style="stop-color:#900C3E"/>
</linearGradient>
<polygon class="st1" points="190,0 0,191.9 54,187.2 195,23.1 "/>
<linearGradient id="SVGID_3_" gradientUnits="userSpaceOnUse" x1="443.4434" y1="130.1472" x2="443.4434" y2="130.1472">
	<stop  offset="0" style="stop-color:#FFFFFF"/>
	<stop  offset="0.8867" style="stop-color:#900C3E"/>
</linearGradient>
<line class="st2" x1="443.4" y1="122.6" x2="443.4" y2="137.6"/>
<linearGradient id="SVGID_4_" gradientUnits="userSpaceOnUse" x1="251.4434" y1="130.1472" x2="251.4434" y2="130.1472">
	<stop  offset="0" style="stop-color:#FFFFFF"/>
	<stop  offset="0.8867" style="stop-color:#900C3E"/>
</linearGradient>
<line class="st3" x1="251.4" y1="137.6" x2="251.4" y2="122.6"/>
<linearGradient id="SVGID_5_" gradientUnits="userSpaceOnUse" x1="196.5151" y1="100.4054" x2="373.4022" y2="100.4054" gradientTransform="matrix(0.7647 0.6443 -0.6443 0.7647 100.1807 -198.3637)">
	<stop  offset="0" style="stop-color:#FFFFFF"/>
	<stop  offset="0" style="stop-color:#900C3E"/>
</linearGradient>
<polyline class="st4" points="193.4,25.1 190,0 327.8,111 "/>
<linearGradient id="SVGID_6_" gradientUnits="userSpaceOnUse" x1="178.4434" y1="87.3384" x2="200.2669" y2="87.3384">
	<stop  offset="0" style="stop-color:#FFFFFF"/>
	<stop  offset="0" style="stop-color:#900C3E"/>
</linearGradient>
<rect x="178.4" y="75.6" class="st5" width="21.8" height="23.4"/>
<linearGradient id="SVGID_7_" gradientUnits="userSpaceOnUse" x1="208.8405" y1="116.9561" x2="230.664" y2="116.9561">
	<stop  offset="0" style="stop-color:#FFFFFF"/>
	<stop  offset="0" style="stop-color:#900C3E"/>
</linearGradient>
<rect x="208.8" y="105.3" class="st6" width="21.8" height="23.4"/>
<linearGradient id="SVGID_8_" gradientUnits="userSpaceOnUse" x1="178.4434" y1="116.6963" x2="200.2669" y2="116.6963">
	<stop  offset="0" style="stop-color:#FFFFFF"/>
	<stop  offset="0" style="stop-color:#900C3E"/>
</linearGradient>
<rect x="178.4" y="105" class="st7" width="21.8" height="23.4"/>
<linearGradient id="SVGID_9_" gradientUnits="userSpaceOnUse" x1="208.8405" y1="87.3384" x2="230.664" y2="87.3384">
	<stop  offset="0" style="stop-color:#FFFFFF"/>
	<stop  offset="0" style="stop-color:#900C3E"/>
</linearGradient>
<rect x="208.8" y="75.6" class="st8" width="21.8" height="23.4"/>
<g>
	<g>
		<g>
			
				<linearGradient id="SVGID_10_" gradientUnits="userSpaceOnUse" x1="44.3359" y1="177.2908" x2="399.2269" y2="177.2908" gradientTransform="matrix(0.9863 -0.1649 0.1649 0.9863 -53.9959 46.9873)">
				<stop  offset="0" style="stop-color:#FFFFFF"/>
				<stop  offset="0" style="stop-color:#900C3E"/>
			</linearGradient>
			<path class="st9" d="M368.9,155.6c0,0-194-54-314.6,53.7C46.2,220.5,33.7,241,25.2,252c117.7-128.3,261.7-63.3,261.7-63.3
				L368.9,155.6"/>
		</g>
		
			<linearGradient id="SVGID_11_" gradientUnits="userSpaceOnUse" x1="137.3121" y1="236.3637" x2="454.3025" y2="236.3637" gradientTransform="matrix(0.4568 -0.1552 0.5867 1.7264 25.3305 -172.6556)">
			<stop  offset="0" style="stop-color:#FFFFFF"/>
			<stop  offset="0" style="stop-color:#900C3E"/>
		</linearGradient>
		<polyline class="st10" points="225.8,211.4 281.4,205.7 368.4,155.8 		"/>
	</g>
	<linearGradient id="SVGID_12_" gradientUnits="userSpaceOnUse" x1="228.9436" y1="216.2113" x2="442.777" y2="216.2113">
		<stop  offset="0" style="stop-color:#FFFFFF"/>
		<stop  offset="0" style="stop-color:#900C3E"/>
	</linearGradient>
	<polyline class="st11" points="281,205.2 228.9,210.1 442.8,227.2 	"/>
</g>
</svg>
